<svg xmlns="http://www.w3.org/2000/svg" xmlns:xlink="http://www.w3.org/1999/xlink" width="1536" zoomAndPan="magnify" viewBox="0 0 1152 647.999998" height="864" preserveAspectRatio="xMidYMid meet" version="1.0"><defs><clipPath id="2530f53b07"><path d="M 1023.554688 190.238281 L 1152 190.238281 L 1152 648 L 1023.554688 648 Z M 1023.554688 190.238281 " clip-rule="nonzero"/></clipPath><clipPath id="25f2c99fe8"><path d="M 554.253906 190.1875 L 1023.472656 190.1875 L 1023.472656 648 L 554.253906 648 Z M 554.253906 190.1875 " clip-rule="nonzero"/></clipPath><clipPath id="d05c2de634"><path d="M 0.128906 311 L 426.128906 311 L 426.128906 648 L 0.128906 648 Z M 0.128906 311 " clip-rule="nonzero"/></clipPath><clipPath id="f4d3dc9439"><path d="M 633 583 L 833 583 L 833 648 L 633 648 Z M 633 583 " clip-rule="nonzero"/></clipPath><clipPath id="35f3369bd9"><path d="M 808.792969 719.59375 L 625.871094 647.816406 L 662.582031 554.261719 L 845.503906 626.035156 Z M 808.792969 719.59375 " clip-rule="nonzero"/></clipPath><clipPath id="1555cd2cdc"><path d="M 784.015625 782.730469 L 601.09375 710.957031 L 662.460938 554.5625 L 845.382812 626.339844 Z M 784.015625 782.730469 " clip-rule="nonzero"/></clipPath><clipPath id="bedde982c0"><path d="M 831.871094 317 L 1041.871094 317 L 1041.871094 648 L 831.871094 648 Z M 831.871094 317 " clip-rule="nonzero"/></clipPath><clipPath id="2b01c47790"><path d="M 0.871094 1 L 210.871094 1 L 210.871094 331 L 0.871094 331 Z M 0.871094 1 " clip-rule="nonzero"/></clipPath><clipPath id="1bf3f586a4"><rect x="0" width="211" y="0" height="331"/></clipPath><clipPath id="5299271575"><path d="M 661.472656 622.769531 L 718.472656 622.769531 L 718.472656 648 L 661.472656 648 Z M 661.472656 622.769531 " clip-rule="nonzero"/></clipPath><clipPath id="91f965132d"><path d="M 978.570312 318 L 1152 318 L 1152 648 L 978.570312 648 Z M 978.570312 318 " clip-rule="nonzero"/></clipPath><clipPath id="690fb543c1"><path d="M 978.570312 363.320312 L 1152 363.320312 L 1152 648 L 978.570312 648 Z M 978.570312 363.320312 " clip-rule="nonzero"/></clipPath><clipPath id="b0312b8144"><path d="M 993.203125 416.375 L 1083.953125 416.375 L 1083.953125 552.125 L 993.203125 552.125 Z M 993.203125 416.375 " clip-rule="nonzero"/></clipPath><clipPath id="e634cfa344"><path d="M 1000.40625 423.589844 L 1086.65625 423.589844 L 1086.65625 553.339844 L 1000.40625 553.339844 Z M 1000.40625 423.589844 " clip-rule="nonzero"/></clipPath><clipPath id="0aef918e12"><path d="M 1012.570312 443.164062 L 1086.820312 443.164062 L 1086.820312 554.164062 L 1012.570312 554.164062 Z M 1012.570312 443.164062 " clip-rule="nonzero"/></clipPath><clipPath id="0746aabb7a"><path d="M 846.503906 456.605469 L 937 456.605469 L 937 592.355469 L 846.503906 592.355469 Z M 846.503906 456.605469 " clip-rule="nonzero"/></clipPath><clipPath id="87141b0772"><path d="M 848.578125 459.722656 L 934.828125 459.722656 L 934.828125 589.472656 L 848.578125 589.472656 Z M 848.578125 459.722656 " clip-rule="nonzero"/></clipPath><clipPath id="c1cf96a3fa"><path d="M 49.523438 499.992188 L 179.273438 499.992188 L 179.273438 629.742188 L 49.523438 629.742188 Z M 49.523438 499.992188 " clip-rule="nonzero"/></clipPath><clipPath id="4c82eabacf"><path d="M 213.070312 553 L 299.320312 553 L 299.320312 648 L 213.070312 648 Z M 213.070312 553 " clip-rule="nonzero"/></clipPath><clipPath id="c91db223f1"><path d="M 227.523438 584.5625 L 285 584.5625 L 285 648 L 227.523438 648 Z M 227.523438 584.5625 " clip-rule="nonzero"/></clipPath><clipPath id="984e0391c2"><path d="M 74.984375 521.902344 L 148.484375 521.902344 L 148.484375 632.152344 L 74.984375 632.152344 Z M 74.984375 521.902344 " clip-rule="nonzero"/></clipPath><clipPath id="33037502ab"><path d="M 81.632812 409.769531 L 141.632812 409.769531 L 141.632812 499.769531 L 81.632812 499.769531 Z M 81.632812 409.769531 " clip-rule="nonzero"/></clipPath></defs><g clip-path="url(#2530f53b07)"><path fill="#ebe3d8" d="M 1330 499.71875 C 1296.992188 484.9375 1270.367188 468.125 1264.222656 429.9375 C 1259.636719 401.441406 1262.734375 370.617188 1242.671875 346.9375 C 1225.042969 326.140625 1191.347656 321.886719 1166.339844 315.449219 C 1144.347656 309.785156 1108.167969 301.195312 1097.457031 278.257812 C 1085.71875 253.132812 1090.300781 228.65625 1065.625 209.0625 C 1053.222656 199.21875 1038.734375 193.78125 1023.554688 190.238281 L 1023.554688 659.457031 L 1482.335938 659.457031 C 1480.710938 652.136719 1478.628906 644.980469 1475.941406 638.054688 C 1462.609375 603.746094 1443.933594 573.195312 1417.652344 547.203125 C 1393.730469 523.542969 1360.214844 513.257812 1330 499.71875 " fill-opacity="1" fill-rule="nonzero"/></g><g clip-path="url(#25f2c99fe8)"><path fill="#ebe3d8" d="M 863.738281 342.523438 C 848.953125 375.53125 832.140625 402.15625 793.957031 408.296875 C 765.457031 412.882812 734.632812 409.785156 710.957031 429.851562 C 690.15625 447.476562 685.902344 481.175781 679.464844 506.183594 C 673.804688 528.175781 665.214844 564.355469 642.273438 575.066406 C 617.148438 586.804688 592.671875 582.222656 573.078125 606.898438 C 563.234375 619.300781 557.796875 633.785156 554.253906 648.96875 L 1023.472656 648.96875 L 1023.472656 190.1875 C 1016.152344 191.808594 1008.996094 193.890625 1002.070312 196.582031 C 967.765625 209.910156 937.214844 228.589844 911.21875 254.871094 C 887.5625 278.792969 877.273438 312.308594 863.738281 342.523438 " fill-opacity="1" fill-rule="nonzero"/></g><g clip-path="url(#d05c2de634)"><path fill="#c89041" d="M 0.394531 311.886719 C 0.394531 311.886719 99.605469 306.417969 148.894531 379.753906 C 201.199219 457.574219 163.046875 522.710938 245.964844 533.316406 C 328.878906 543.933594 331.671875 565.824219 344 612.890625 C 359.492188 672.078125 426.148438 703.734375 426.148438 703.734375 L 0.0195312 703.734375 L 0.410156 311.886719 Z M 0.394531 311.886719 " fill-opacity="1" fill-rule="nonzero"/></g><g clip-path="url(#f4d3dc9439)"><g clip-path="url(#35f3369bd9)"><g clip-path="url(#1555cd2cdc)"><path fill="#3e5349" d="M 643.769531 680.34375 C 651.058594 688.144531 663.578125 691.492188 666.226562 702.949219 C 668.636719 712.535156 667.976562 722.394531 674.339844 730.074219 C 686.222656 744.367188 706.507812 742.496094 723.195312 743.347656 C 734.238281 743.914062 745.417969 748.558594 756.539062 751.125 C 773.222656 754.980469 795.929688 751.199219 798.136719 730.628906 C 798.917969 723.3125 797.203125 715.996094 796.207031 708.703125 C 794.996094 699.859375 795.027344 689.851562 801.644531 683.03125 C 811.179688 673.199219 828.222656 670.011719 831.410156 654.972656 C 835.511719 636.34375 822.457031 617.402344 804.738281 611.5625 C 790.921875 607.007812 776.140625 612.265625 762.0625 612.28125 C 745.988281 612.300781 733.136719 606.078125 719.855469 597.703125 C 706.726562 589.425781 693.128906 581.5 676.984375 584.394531 C 661.683594 587.140625 649.003906 597.550781 642.070312 611.296875 C 632.597656 630.085938 627.828125 663.285156 643.769531 680.34375 Z M 643.769531 680.34375 " fill-opacity="1" fill-rule="nonzero"/></g></g></g><g clip-path="url(#bedde982c0)"><g transform="matrix(1, 0, 0, 1, 831, 317)"><g clip-path="url(#1bf3f586a4)"><g clip-path="url(#2b01c47790)"><path fill="#a95a32" d="M -111.660156 331.953125 L 210.925781 331.953125 L 210.925781 9.363281 C 210.925781 9.363281 128.0625 -27.632812 119.183594 56.71875 C 110.304688 141.0625 51.117188 61.15625 14.121094 117.390625 C -22.875 173.625 31.878906 210.613281 -43.59375 244.648438 C -119.058594 278.6875 -111.660156 331.953125 -111.660156 331.953125 Z M -111.660156 331.953125 " fill-opacity="1" fill-rule="nonzero"/></g></g></g></g><g clip-path="url(#5299271575)"><path fill="#9c652d" d="M 689.980469 622.832031 C 674.3125 622.769531 661.554688 635.414062 661.484375 651.09375 L 718.246094 651.339844 C 718.308594 635.671875 705.664062 622.902344 689.980469 622.832031 Z M 689.980469 622.832031 " fill-opacity="1" fill-rule="nonzero"/></g><g clip-path="url(#91f965132d)"><path fill="#a95a32" d="M 1301.347656 648.953125 L 978.761719 648.953125 L 978.761719 326.363281 C 978.761719 326.363281 1061.625 289.367188 1070.503906 373.71875 C 1079.382812 458.0625 1138.574219 378.15625 1175.566406 434.390625 C 1212.5625 490.625 1157.808594 527.613281 1233.28125 561.648438 C 1308.746094 595.6875 1301.347656 648.953125 1301.347656 648.953125 Z M 1301.347656 648.953125 " fill-opacity="1" fill-rule="nonzero"/></g><g clip-path="url(#690fb543c1)"><path fill="#c89041" d="M 1170.457031 459.359375 L 1170.457031 651.246094 L 978.570312 651.246094 L 978.570312 459.359375 C 978.570312 406.371094 1021.527344 363.414062 1074.515625 363.414062 C 1127.503906 363.414062 1170.457031 406.371094 1170.457031 459.359375 Z M 1170.457031 459.359375 " fill-opacity="1" fill-rule="nonzero"/></g><g clip-path="url(#b0312b8144)"><path fill="#ebe3d8" d="M 1083.695312 461.664062 L 1083.695312 552.15625 L 993.203125 552.15625 L 993.203125 461.664062 C 993.203125 436.675781 1013.460938 416.414062 1038.449219 416.414062 C 1063.441406 416.414062 1083.695312 436.675781 1083.695312 461.664062 Z M 1083.695312 461.664062 " fill-opacity="1" fill-rule="nonzero"/></g><g clip-path="url(#e634cfa344)"><path fill="#3e5349" d="M 1086.753906 466.804688 L 1086.753906 553.148438 L 1000.40625 553.148438 L 1000.40625 466.804688 C 1000.40625 442.960938 1019.738281 423.632812 1043.582031 423.632812 C 1067.425781 423.632812 1086.753906 442.960938 1086.753906 466.804688 Z M 1086.753906 466.804688 " fill-opacity="1" fill-rule="nonzero"/></g><g clip-path="url(#0aef918e12)"><path fill="#a95a32" d="M 1086.75 480.289062 L 1086.75 554.46875 L 1012.570312 554.46875 L 1012.570312 480.289062 C 1012.570312 459.804688 1029.175781 443.199219 1049.660156 443.199219 C 1070.144531 443.199219 1086.75 459.804688 1086.75 480.289062 Z M 1086.75 480.289062 " fill-opacity="1" fill-rule="nonzero"/></g><g clip-path="url(#0746aabb7a)"><path fill="#ebe3d8" d="M 937 501.894531 L 937 592.386719 L 846.503906 592.386719 L 846.503906 501.894531 C 846.503906 476.90625 866.761719 456.648438 891.753906 456.648438 C 916.742188 456.648438 937 476.90625 937 501.894531 Z M 937 501.894531 " fill-opacity="1" fill-rule="nonzero"/></g><g clip-path="url(#87141b0772)"><path fill="#9c652d" d="M 934.925781 502.933594 L 934.925781 589.28125 L 848.578125 589.28125 L 848.578125 502.933594 C 848.578125 479.089844 867.910156 459.761719 891.753906 459.761719 C 915.597656 459.761719 934.925781 479.089844 934.925781 502.933594 Z M 934.925781 502.933594 " fill-opacity="1" fill-rule="nonzero"/></g><g clip-path="url(#c1cf96a3fa)"><path fill="#d1baa3" d="M 49.523438 499.992188 L 179.21875 499.992188 L 179.21875 629.691406 L 49.523438 629.691406 Z M 49.523438 499.992188 " fill-opacity="1" fill-rule="nonzero"/></g><g clip-path="url(#4c82eabacf)"><path fill="#3e5349" d="M 299.414062 596.214844 L 299.414062 682.558594 L 213.070312 682.558594 L 213.070312 596.214844 C 213.070312 572.371094 232.398438 553.042969 256.242188 553.042969 C 280.085938 553.042969 299.414062 572.371094 299.414062 596.214844 Z M 299.414062 596.214844 " fill-opacity="1" fill-rule="nonzero"/></g><g clip-path="url(#c91db223f1)"><path fill="#9c652d" d="M 284.957031 613.304688 L 284.957031 670.738281 L 227.523438 670.738281 L 227.523438 613.304688 C 227.523438 597.445312 240.382812 584.585938 256.242188 584.585938 C 272.101562 584.585938 284.957031 597.445312 284.957031 613.304688 Z M 284.957031 613.304688 " fill-opacity="1" fill-rule="nonzero"/></g><g clip-path="url(#984e0391c2)"><path fill="#9c652d" d="M 148.390625 558.640625 L 148.390625 632.046875 L 74.984375 632.046875 L 74.984375 558.640625 C 74.984375 538.371094 91.417969 521.9375 111.6875 521.9375 C 131.957031 521.9375 148.390625 538.371094 148.390625 558.640625 Z M 148.390625 558.640625 " fill-opacity="1" fill-rule="nonzero"/></g><g clip-path="url(#33037502ab)"><path fill="#3e5349" d="M 141.738281 439.851562 L 141.738281 499.957031 L 81.632812 499.957031 L 81.632812 439.851562 C 81.632812 423.253906 95.089844 409.796875 111.6875 409.796875 C 128.285156 409.796875 141.738281 423.253906 141.738281 439.851562 Z M 141.738281 439.851562 " fill-opacity="1" fill-rule="nonzero"/></g></svg>