<svg width="1424" height="175" viewBox="0 0 1424 175" fill="none" xmlns="http://www.w3.org/2000/svg">
<path d="M0 22.7165L7.90722 23.5093L15.8144 24.3011L23.7217 25.091L31.6289 25.878L39.5361 26.6612L47.4433 27.4395L55.3505 28.2121L63.2577 28.978L71.1649 29.7363L79.0722 30.486L86.9794 31.2262L94.8866 31.9561L102.794 32.6747L110.701 33.3812L118.608 34.0747L126.515 34.7544L134.423 35.4194L142.33 36.0689L150.237 36.7022L158.144 37.3184L166.052 37.9168L173.959 38.4967L181.866 39.0574L189.773 39.5981L197.68 40.1183L205.588 40.6173L213.495 41.0945L221.402 41.5493L229.309 41.9812L237.216 42.3896L245.124 42.774L253.031 43.134L260.938 43.469L268.845 43.7789L276.753 44.063L284.66 44.3212L292.567 44.553L300.474 44.7582L308.381 44.9366L316.289 45.0879L324.196 45.2119L332.103 45.3085L340.01 45.3777L347.918 45.4192L355.825 45.433L363.732 45.4192L371.639 45.3777L379.546 45.3085L387.454 45.2119L395.361 45.0879L403.268 44.9366L411.175 44.7582L419.082 44.553L426.99 44.3212L434.897 44.063L442.804 43.7789L450.711 43.469L458.619 43.134L466.526 42.774L474.433 42.3896L482.34 41.9812L490.247 41.5493L498.155 41.0945L506.062 40.6173L513.969 40.1183L521.876 39.5981L529.784 39.0574L537.691 38.4967L545.598 37.9168L553.505 37.3184L561.412 36.7022L569.32 36.0689L577.227 35.4194L585.134 34.7544L593.041 34.0747L600.948 33.3812L608.856 32.6747L616.763 31.9561L624.67 31.2262L632.577 30.486L640.484 29.7363L648.392 28.978L656.299 28.2121L664.206 27.4395L672.113 26.6612L680.021 25.878L687.928 25.091L695.835 24.3011L703.742 23.5093L711.649 22.7165L719.557 21.9237L727.464 21.1319L735.371 20.342L743.278 19.555L751.186 18.7718L759.093 17.9935L767 17.2209L774.907 16.455L782.814 15.6967L790.722 14.947L798.629 14.2068L806.536 13.4769L814.443 12.7582L822.351 12.0518L830.258 11.3582L838.165 10.6786L846.072 10.0136L853.979 9.36407L861.887 8.73082L869.794 8.11462L877.701 7.51619L885.608 6.93629L893.515 6.37562L901.423 5.83485L909.33 5.31465L917.237 4.81565L925.144 4.33846L933.052 3.88367L940.959 3.45181L948.866 3.04343L956.773 2.65902L964.68 2.29905L972.588 1.96395L980.495 1.65413L988.402 1.36997L996.309 1.11183L1004.22 0.879995L1012.12 0.674775L1020.03 0.496413L1027.94 0.345115L1035.85 0.221076L1043.75 0.124448L1051.66 0.0553358L1059.57 0.0138384L1067.47 0L1075.38 0.0138384L1083.29 0.0553358L1091.2 0.124448L1099.1 0.221076L1107.01 0.345115L1114.92 0.496413L1122.82 0.674775L1130.73 0.879995L1138.64 1.11183L1146.55 1.36997L1154.45 1.65413L1162.36 1.96395L1170.27 2.29905L1178.18 2.65902L1186.08 3.04343L1193.99 3.45181L1201.9 3.88367L1209.8 4.33846L1217.71 4.81565L1225.62 5.31465L1233.53 5.83485L1241.43 6.37562L1249.34 6.93629L1257.25 7.51619L1265.15 8.11462L1273.06 8.73082L1280.97 9.36407L1288.88 10.0136L1296.78 10.6786L1304.69 11.3582L1312.6 12.0518L1320.51 12.7582L1328.41 13.4769L1336.32 14.2068L1344.23 14.947L1352.13 15.6967L1360.04 16.455L1367.95 17.2209L1375.86 17.9935L1383.76 18.7718L1391.67 19.555L1399.58 20.342L1407.48 21.1319L1415.39 21.9237L1423.3 22.7165V174.16H0V22.7165Z" fill="#F7ECE1"/>
</svg>
