<svg width="1440" height="100" viewBox="0 0 1440 100" fill="none" xmlns="http://www.w3.org/2000/svg">
<path d="M1474.23 10.7143L1465.87 11.0882L1457.51 11.4617L1449.15 11.8342L1440.79 12.2054L1432.43 12.5748L1424.07 12.9419L1415.71 13.3063L1407.35 13.6675L1398.99 14.0252L1390.63 14.3788L1382.27 14.7279L1373.91 15.0722L1365.55 15.4111L1357.19 15.7443L1348.83 16.0714L1340.47 16.392L1332.11 16.7056L1323.75 17.012L1315.39 17.3107L1307.03 17.6013L1298.67 17.8835L1290.3 18.1571L1281.94 18.4215L1273.58 18.6766L1265.22 18.9219L1256.86 19.1573L1248.5 19.3823L1240.14 19.5968L1231.78 19.8005L1223.42 19.9931L1215.06 20.1744L1206.7 20.3442L1198.34 20.5023L1189.98 20.6484L1181.62 20.7824L1173.26 20.9042L1164.9 21.0135L1156.54 21.1103L1148.18 21.1944L1139.82 21.2658L1131.46 21.3243L1123.1 21.3699L1114.74 21.4025L1106.38 21.422L1098.02 21.4286L1089.66 21.422L1081.3 21.4025L1072.94 21.3699L1064.58 21.3243L1056.21 21.2658L1047.85 21.1944L1039.49 21.1103L1031.13 21.0135L1022.77 20.9042L1014.41 20.7824L1006.05 20.6484L997.692 20.5023L989.332 20.3442L980.972 20.1744L972.611 19.9931L964.251 19.8005L955.891 19.5968L947.53 19.3823L939.17 19.1573L930.81 18.9219L922.449 18.6766L914.089 18.4215L905.728 18.1571L897.368 17.8835L889.008 17.6013L880.647 17.3107L872.287 17.012L863.927 16.7056L855.566 16.392L847.206 16.0714L838.846 15.7443L830.485 15.4111L822.125 15.0722L813.764 14.7279L805.404 14.3788L797.044 14.0252L788.683 13.6675L780.323 13.3063L771.963 12.9419L763.602 12.5748L755.242 12.2054L746.882 11.8342L738.521 11.4617L730.161 11.0882L721.801 10.7143L713.44 10.3404L705.08 9.9669L696.719 9.59434L688.359 9.22315L679.999 8.85377L671.638 8.48666L663.278 8.12227L654.918 7.76103L646.557 7.40339L638.197 7.04978L629.837 6.70064L621.476 6.35639L613.116 6.01745L604.755 5.68423L596.395 5.35714L588.035 5.03658L579.674 4.72293L571.314 4.41659L562.954 4.11791L554.593 3.82727L546.233 3.54503L537.873 3.27152L529.512 3.00707L521.152 2.75202L512.792 2.50666L504.431 2.27131L496.071 2.04624L487.71 1.83174L479.35 1.62805L470.99 1.43544L462.629 1.25413L454.269 1.08435L445.909 0.926295L437.548 0.780174L429.188 0.646151L420.828 0.524395L412.467 0.415053L404.107 0.31826L395.747 0.234132L387.386 0.162774L379.026 0.10427L370.665 0.0586929L362.305 0.0261003L353.945 0.00652376L345.584 0L337.224 0.00652376L328.864 0.0261003L320.503 0.0586929L312.143 0.10427L303.783 0.162774L295.422 0.234132L287.062 0.31826L278.702 0.415053L270.341 0.524395L261.981 0.646151L253.62 0.780174L245.26 0.926295L236.9 1.08435L228.539 1.25413L220.179 1.43544L211.819 1.62805L203.458 1.83174L195.098 2.04624L186.738 2.27131L178.377 2.50666L170.017 2.75202L161.656 3.00707L153.296 3.27152L144.936 3.54503L136.576 3.82727L128.215 4.11791L119.855 4.41659L111.494 4.72293L103.134 5.03658L94.7737 5.35714L86.4133 5.68423L78.053 6.01745L69.6925 6.35639L61.3323 6.70064L52.9719 7.04978L44.6115 7.40339L36.2511 7.76103L27.8907 8.12227L19.5305 8.48666L11.17 8.85377L2.80969 9.22315L-5.55066 9.59434L-13.9109 9.9669L-22.2714 10.3404L-30.6317 10.7143V100H1474.23V10.7143Z" fill="#EDE2D7"/>
</svg>
