<svg width="47" height="47" viewBox="0 0 47 47" fill="none" xmlns="http://www.w3.org/2000/svg">
<g clip-path="url(#clip0_213_254)">
<path d="M2.61133 23.4998C2.61133 27.6312 3.83644 31.6699 6.13174 35.105C8.42704 38.5402 11.6894 41.2176 15.5064 42.7986C19.3233 44.3796 23.5234 44.7933 27.5754 43.9873C31.6275 43.1813 35.3495 41.1918 38.2709 38.2704C41.1923 35.3491 43.1817 31.627 43.9877 27.575C44.7937 23.5229 44.3801 19.3229 42.799 15.5059C41.218 11.689 38.5406 8.4266 35.1055 6.1313C31.6703 3.836 27.6316 2.61089 23.5002 2.61089C17.9601 2.61089 12.647 4.81167 8.72954 8.7291C4.81212 12.6465 2.61133 17.9597 2.61133 23.4998ZM24.8058 38.5528V41.7123C24.3749 41.7123 23.9441 41.7776 23.5002 41.7776C23.0563 41.7776 22.6255 41.7776 22.1947 41.7123V38.5528H24.8058ZM5.28772 24.8053C5.28772 24.3745 5.22244 23.9437 5.22244 23.4998C5.22244 23.0559 5.22244 22.6251 5.28772 22.1942H8.44716V24.8053H5.28772ZM41.7127 22.1942C41.7127 22.6251 41.778 23.0559 41.778 23.4998C41.778 23.9437 41.778 24.3745 41.7127 24.8053H38.5533V22.1942H41.7127ZM34.4277 11.7498C34.5553 11.8571 34.6447 12.0029 34.6824 12.1654C34.72 12.3278 34.704 12.4981 34.6366 12.6506L26.6074 26.4373L12.8208 34.4664C12.2072 34.7928 11.3847 33.9573 11.7241 33.3437L19.9883 19.8051L33.5269 11.5409C33.6794 11.4735 33.8497 11.4574 34.0121 11.4951C34.1746 11.5328 34.3204 11.6221 34.4277 11.7498ZM24.8058 8.44672H22.1947V5.28727C22.6255 5.28727 23.0563 5.222 23.5002 5.222C23.9441 5.222 24.3749 5.222 24.8058 5.28727V8.44672Z" fill="black"/>
<path d="M25.2626 25.106L31.0332 15.2098L21.3198 21.1501L25.2626 25.106Z" fill="black"/>
</g>
<defs>
<clipPath id="clip0_213_254">
<rect width="47" height="47" fill="white" transform="matrix(0 -1 1 0 0 47)"/>
</clipPath>
</defs>
</svg>
