<svg width="47" height="47" viewBox="0 0 47 47" fill="none" xmlns="http://www.w3.org/2000/svg">
<path fill-rule="evenodd" clip-rule="evenodd" d="M22.7286 4.07345C22.9724 3.96893 23.2349 3.91504 23.5002 3.91504C23.7654 3.91504 24.0279 3.96893 24.2717 4.07345L36.7933 9.44124C37.498 9.74332 38.0986 10.2456 38.5205 10.8858C38.9424 11.526 39.1671 12.2759 39.1668 13.0426V26.4768C39.1666 28.8932 38.5276 31.2666 37.3147 33.3566C36.1017 35.4465 34.3578 37.1787 32.2598 38.3776L24.4715 42.8269C24.1757 42.9959 23.8409 43.0848 23.5002 43.0848C23.1595 43.0848 22.8247 42.9959 22.5288 42.8269L14.7405 38.3776C12.6419 37.1783 10.8977 35.4456 9.68469 33.3549C8.47169 31.2642 7.83304 28.89 7.8335 26.4729V13.0426C7.83358 12.2762 8.0585 11.5267 8.48039 10.8869C8.90229 10.2471 9.50261 9.74515 10.207 9.4432L22.7286 4.07345ZM30.7597 20.968C31.1164 20.5986 31.3138 20.104 31.3094 19.5905C31.3049 19.077 31.0989 18.5859 30.7358 18.2228C30.3728 17.8597 29.8816 17.6537 29.3681 17.6493C28.8546 17.6448 28.36 17.8422 27.9906 18.1989L21.5418 24.6477L19.0097 22.1156C18.6404 21.7588 18.1457 21.5615 17.6322 21.5659C17.1187 21.5704 16.6276 21.7763 16.2645 22.1394C15.9014 22.5025 15.6954 22.9937 15.691 23.5072C15.6865 24.0206 15.8839 24.5153 16.2406 24.8847L20.1573 28.8013C20.5245 29.1685 21.0225 29.3747 21.5418 29.3747C22.0611 29.3747 22.5591 29.1685 22.9264 28.8013L30.7597 20.968Z" fill="black"/>
</svg>
