<svg width="47" height="47" viewBox="0 0 47 47" fill="none" xmlns="http://www.w3.org/2000/svg">
<path fill-rule="evenodd" clip-rule="evenodd" d="M11.1078 8.01947C14.4012 4.77426 18.8361 2.95024 23.4597 2.93926C28.0834 2.92827 32.5269 4.7312 35.8357 7.96073H35.8396L35.9022 8.01947C42.8445 14.8482 42.8582 25.8168 35.9845 32.577L24.8788 43.5006C24.5125 43.8611 24.019 44.0632 23.505 44.0632C22.991 44.0632 22.4976 43.8611 22.1312 43.5006L11.0255 32.577C9.39508 30.9829 8.09957 29.0792 7.2151 26.9775C6.33062 24.8758 5.875 22.6186 5.875 20.3384C5.875 18.0582 6.33062 15.8009 7.2151 13.6993C8.09957 11.5976 9.39508 9.69381 11.0255 8.09977L11.1078 8.01947ZM23.5001 12.7293C22.7286 12.7293 21.9646 12.8812 21.2519 13.1765C20.5391 13.4717 19.8914 13.9045 19.3459 14.45C18.8003 14.9956 18.3676 15.6432 18.0723 16.356C17.7771 17.0688 17.6251 17.8328 17.6251 18.6043C17.6251 19.3758 17.7771 20.1397 18.0723 20.8525C18.3676 21.5653 18.8003 22.213 19.3459 22.7585C19.8914 23.3041 20.5391 23.7368 21.2519 24.0321C21.9646 24.3273 22.7286 24.4793 23.5001 24.4793C25.0583 24.4793 26.5526 23.8603 27.6544 22.7585C28.7562 21.6567 29.3751 20.1624 29.3751 18.6043C29.3751 17.0461 28.7562 15.5518 27.6544 14.45C26.5526 13.3482 25.0583 12.7293 23.5001 12.7293Z" fill="black"/>
</svg>
