<svg width="47" height="47" viewBox="0 0 47 47" fill="none" xmlns="http://www.w3.org/2000/svg">
<path d="M23.5 15.2752V4.7002H12.925C11.9902 4.7002 11.0936 5.07158 10.4325 5.73264C9.77143 6.39371 9.40004 7.29031 9.40004 8.2252V21.1572C11.0817 21.2206 12.7121 21.753 14.1071 22.6941C15.973 21.4459 18.2362 20.9354 20.4572 21.262C22.6783 21.5885 24.6988 22.7287 26.1264 24.4613C27.5541 26.1938 28.287 28.395 28.183 30.6375C28.0789 32.88 27.1453 35.0039 25.5633 36.5967L19.8575 42.3002H34.075C35.0099 42.3002 35.9065 41.9288 36.5676 41.2677C37.2287 40.6067 37.6 39.7101 37.6 38.7752V18.8002H27.025C26.0902 18.8002 25.1936 18.4288 24.5325 17.7677C23.8714 17.1067 23.5 16.2101 23.5 15.2752ZM25.85 15.2752V5.2877L37.0125 16.4502H27.025C26.7134 16.4502 26.4145 16.3264 26.1942 16.106C25.9738 15.8857 25.85 15.5868 25.85 15.2752ZM14.422 25.4624C15.044 24.8405 15.7824 24.3471 16.5951 24.0104C17.4078 23.6738 18.2788 23.5006 19.1584 23.5006C20.0381 23.5006 20.9091 23.6738 21.7218 24.0104C22.5344 24.3471 23.2728 24.8405 23.8948 25.4624C24.5168 26.0844 25.0102 26.8229 25.3469 27.6355C25.6835 28.4482 25.8567 29.3192 25.8567 30.1989C25.8567 31.0785 25.6835 31.9495 25.3469 32.7622C25.0102 33.5749 24.5168 34.3133 23.8948 34.9353L14.9319 43.8982C14.7116 44.1185 14.4128 44.2422 14.1012 44.2422C13.7897 44.2422 13.4908 44.1185 13.2705 43.8982L4.30759 34.9353C3.05142 33.6791 2.3457 31.9754 2.3457 30.1989C2.3457 29.3192 2.51896 28.4482 2.85558 27.6355C3.1922 26.8229 3.6856 26.0844 4.30759 25.4624C4.92959 24.8405 5.66801 24.3471 6.48068 24.0104C7.29336 23.6738 8.16438 23.5006 9.04402 23.5006C10.8205 23.5006 12.5243 24.2063 13.7804 25.4624L14.1024 25.782L14.422 25.4624Z" fill="black"/>
</svg>
