<svg width="47" height="47" viewBox="0 0 47 47" fill="none" xmlns="http://www.w3.org/2000/svg">
<path d="M25.7028 2.20312V5.875H28.5963C29.4893 5.875 30.3676 6.11 31.1431 6.55356L34.9325 8.71556C35.0461 8.78019 35.1675 8.8125 35.2967 8.8125H41.8591C42.4434 8.8125 43.0038 9.04461 43.4169 9.45778C43.8301 9.87095 44.0622 10.4313 44.0622 11.0156C44.0622 11.5999 43.8301 12.1603 43.4169 12.5735C43.0038 12.9866 42.4434 13.2188 41.8591 13.2188H40.6048L46.8058 27.0015C46.9891 27.4093 47.044 27.8631 46.9632 28.3028C46.8824 28.7425 46.6697 29.1472 46.3535 29.4631L44.7966 27.9062L46.3505 29.4661L46.3476 29.4719L46.3417 29.4778L46.3241 29.4954L46.3065 29.5101L46.2771 29.5395L46.1449 29.657C45.5241 30.176 44.8524 30.6166 44.1298 30.9789C42.758 31.6662 40.7722 32.3125 38.1872 32.3125C36.1296 32.3366 34.0947 31.8799 32.2447 30.9789C31.5235 30.6188 30.8471 30.1751 30.2295 29.657L30.0973 29.5395L30.0503 29.4954L30.0327 29.4778L30.021 29.4661V29.4631C29.7047 29.1472 29.4921 28.7425 29.4113 28.3028C29.3305 27.8631 29.3854 27.4093 29.5686 27.0015L35.7726 13.2188H35.2967C34.4008 13.2188 33.5225 12.9867 32.747 12.5402L28.9576 10.3782C28.8467 10.3147 28.7211 10.2813 28.5933 10.2812H25.7028V38.1875H33.0466C33.6309 38.1875 34.1913 38.4196 34.6044 38.8328C35.0176 39.2459 35.2497 39.8063 35.2497 40.3906C35.2497 40.9749 35.0176 41.5353 34.6044 41.9485C34.1913 42.3616 33.6309 42.5938 33.0466 42.5938H13.9528C13.3685 42.5938 12.8082 42.3616 12.395 41.9485C11.9818 41.5353 11.7497 40.9749 11.7497 40.3906C11.7497 39.8063 11.9818 39.2459 12.395 38.8328C12.8082 38.4196 13.3685 38.1875 13.9528 38.1875H21.2966V10.2812H18.4061C18.2783 10.2813 18.1528 10.3147 18.0418 10.3782L14.2554 12.5431C13.477 12.9838 12.5987 13.2188 11.7027 13.2188H11.2268L17.4308 27.0015C17.6141 27.4093 17.669 27.8631 17.5882 28.3028C17.5074 28.7425 17.2947 29.1472 16.9785 29.4631L15.4216 27.9062L16.9755 29.4661L16.9726 29.4719L16.9667 29.4778L16.9491 29.4954L16.9021 29.5395L16.7699 29.657C16.1491 30.176 15.4774 30.6166 14.7548 30.9789C13.383 31.6662 11.3972 32.3125 8.81222 32.3125C6.75457 32.3366 4.71971 31.8799 2.86966 30.9789C2.14846 30.6188 1.4721 30.1751 0.854538 29.657L0.722351 29.5395L0.675351 29.4954L0.657726 29.4778L0.645976 29.4661V29.4631C0.32973 29.1472 0.117087 28.7425 0.0362866 28.3028C-0.0445133 27.8631 0.0103536 27.4093 0.193601 27.0015L6.3976 13.2188H5.14035C4.55605 13.2188 3.99567 12.9866 3.58251 12.5735C3.16934 12.1603 2.93723 11.5999 2.93723 11.0156C2.93723 10.4313 3.16934 9.87095 3.58251 9.45778C3.99567 9.04461 4.55605 8.8125 5.14035 8.8125H11.7027C11.8315 8.81294 11.9581 8.77951 12.0699 8.71556L15.8534 6.55062C16.6318 6.11 17.5102 5.875 18.4061 5.875H21.2966V2.20312C21.2966 1.61882 21.5287 1.05845 21.9419 0.64528C22.355 0.232114 22.9154 0 23.4997 0C24.084 0 24.6444 0.232114 25.0576 0.64528C25.4707 1.05845 25.7028 1.61882 25.7028 2.20312ZM34.3538 27.1043C35.191 27.5009 36.4629 27.9062 38.1872 27.9062C39.9115 27.9062 41.1835 27.5009 42.0207 27.1043L38.1872 18.5856L34.3538 27.1043ZM4.97879 27.1043C5.81598 27.5009 7.08791 27.9062 8.81222 27.9062C10.5365 27.9062 11.8085 27.5009 12.6457 27.1043L8.81222 18.5856L4.97879 27.1043Z" fill="black"/>
</svg>
