<svg width="47" height="47" viewBox="0 0 47 47" fill="none" xmlns="http://www.w3.org/2000/svg">
<path fill-rule="evenodd" clip-rule="evenodd" d="M24.2933 6.11C24.0566 5.95816 23.7813 5.87744 23.5002 5.87744C23.219 5.87744 22.9437 5.95816 22.707 6.11L2.14453 19.3287L3.73078 21.7962L5.87516 20.4215V39.6562C5.87516 40.0458 6.0299 40.4194 6.30534 40.6948C6.58079 40.9703 6.95437 41.125 7.34391 41.125H39.6564C40.0459 41.125 40.4195 40.9703 40.695 40.6948C40.9704 40.4194 41.1252 40.0458 41.1252 39.6562V20.4215L43.2695 21.7992L44.8558 19.3258L24.2933 6.11ZM19.0939 26.4375C18.7044 26.4375 18.3308 26.5922 18.0553 26.8677C17.7799 27.1431 17.6252 27.5167 17.6252 27.9062V38.1875H20.5627V29.375H26.4377V38.1875H29.3752V27.9062C29.3752 27.5167 29.2204 27.1431 28.945 26.8677C28.6695 26.5922 28.2959 26.4375 27.9064 26.4375H19.0939Z" fill="black"/>
</svg>
